<svg id="visual" viewBox="0 0 960 540" width="960" height="540" xmlns="http://www.w3.org/2000/svg" xmlns:xlink="http://www.w3.org/1999/xlink" version="1.1"><rect x="0" y="0" width="960" height="540" fill="#222831"></rect><path d="M150 0L144.3 12.8C138.7 25.7 127.3 51.3 128.7 77C130 102.7 144 128.3 152 154C160 179.7 162 205.3 155.2 231.2C148.3 257 132.7 283 124.3 308.8C116 334.7 115 360.3 122.7 386C130.3 411.7 146.7 437.3 141.8 463C137 488.7 111 514.3 98 527.2L85 540L0 540L0 527.2C0 514.3 0 488.7 0 463C0 437.3 0 411.7 0 386C0 360.3 0 334.7 0 308.8C0 283 0 257 0 231.2C0 205.3 0 179.7 0 154C0 128.3 0 102.7 0 77C0 51.3 0 25.7 0 12.8L0 0Z" fill="#ffc63c"></path><path d="M126 0L117.8 12.8C109.7 25.7 93.3 51.3 84.8 77C76.3 102.7 75.7 128.3 82.7 154C89.7 179.7 104.3 205.3 111.7 231.2C119 257 119 283 114.7 308.8C110.3 334.7 101.7 360.3 99 386C96.3 411.7 99.7 437.3 103.2 463C106.7 488.7 110.3 514.3 112.2 527.2L114 540L0 540L0 527.2C0 514.3 0 488.7 0 463C0 437.3 0 411.7 0 386C0 360.3 0 334.7 0 308.8C0 283 0 257 0 231.2C0 205.3 0 179.7 0 154C0 128.3 0 102.7 0 77C0 51.3 0 25.7 0 12.8L0 0Z" fill="#ffca48"></path><path d="M91 0L85.2 12.8C79.3 25.7 67.7 51.3 65.8 77C64 102.7 72 128.3 74.5 154C77 179.7 74 205.3 78.5 231.2C83 257 95 283 91.3 308.8C87.7 334.7 68.3 360.3 66.5 386C64.7 411.7 80.3 437.3 82.2 463C84 488.7 72 514.3 66 527.2L60 540L0 540L0 527.2C0 514.3 0 488.7 0 463C0 437.3 0 411.7 0 386C0 360.3 0 334.7 0 308.8C0 283 0 257 0 231.2C0 205.3 0 179.7 0 154C0 128.3 0 102.7 0 77C0 51.3 0 25.7 0 12.8L0 0Z" fill="#ffcd54"></path><path d="M72 0L71.7 12.8C71.3 25.7 70.7 51.3 65.7 77C60.7 102.7 51.3 128.3 51.2 154C51 179.7 60 205.3 58.2 231.2C56.3 257 43.7 283 41.3 308.8C39 334.7 47 360.3 49.3 386C51.7 411.7 48.3 437.3 50.8 463C53.3 488.7 61.7 514.3 65.8 527.2L70 540L0 540L0 527.2C0 514.3 0 488.7 0 463C0 437.3 0 411.7 0 386C0 360.3 0 334.7 0 308.8C0 283 0 257 0 231.2C0 205.3 0 179.7 0 154C0 128.3 0 102.7 0 77C0 51.3 0 25.7 0 12.8L0 0Z" fill="#ffd05f"></path><path d="M37 0L36.2 12.8C35.3 25.7 33.7 51.3 31.5 77C29.3 102.7 26.7 128.3 30 154C33.3 179.7 42.7 205.3 45.2 231.2C47.7 257 43.3 283 42.7 308.8C42 334.7 45 360.3 46.2 386C47.3 411.7 46.7 437.3 42.3 463C38 488.7 30 514.3 26 527.2L22 540L0 540L0 527.2C0 514.3 0 488.7 0 463C0 437.3 0 411.7 0 386C0 360.3 0 334.7 0 308.8C0 283 0 257 0 231.2C0 205.3 0 179.7 0 154C0 128.3 0 102.7 0 77C0 51.3 0 25.7 0 12.8L0 0Z" fill="#ffd369"></path></svg>