<svg id="visual" viewBox="0 0 900 600" width="900" height="600" xmlns="http://www.w3.org/2000/svg" xmlns:xlink="http://www.w3.org/1999/xlink" version="1.1"><rect x="0" y="0" width="900" height="600" fill="#001122"></rect><path d="M0 342L129 342L129 356L257 356L257 290L386 290L386 297L514 297L514 375L643 375L643 302L771 302L771 359L900 359L900 296L900 601L900 601L771 601L771 601L643 601L643 601L514 601L514 601L386 601L386 601L257 601L257 601L129 601L129 601L0 601Z" fill="#fcaf3c"></path><path d="M0 448L129 448L129 391L257 391L257 440L386 440L386 393L514 393L514 426L643 426L643 410L771 410L771 419L900 419L900 426L900 601L900 601L771 601L771 601L643 601L643 601L514 601L514 601L386 601L386 601L257 601L257 601L129 601L129 601L0 601Z" fill="#fa9424"></path><path d="M0 513L129 513L129 492L257 492L257 495L386 495L386 472L514 472L514 514L643 514L643 542L771 542L771 454L900 454L900 479L900 601L900 601L771 601L771 601L643 601L643 601L514 601L514 601L386 601L386 601L257 601L257 601L129 601L129 601L0 601Z" fill="#f7770f"></path></svg>