<svg id="visual" viewBox="0 0 960 540" width="960" height="540" xmlns="http://www.w3.org/2000/svg" xmlns:xlink="http://www.w3.org/1999/xlink" version="1.1"><rect x="0" y="0" width="960" height="540" fill="#222831"></rect><path d="M750 540L750.2 533.5C750.3 527 750.7 514 759.8 501.2C769 488.3 787 475.7 794.2 462.8C801.3 450 797.7 437 795.5 424.2C793.3 411.3 792.7 398.7 785.3 385.8C778 373 764 360 761.8 347.2C759.7 334.3 769.3 321.7 773.8 308.8C778.3 296 777.7 283 772.3 270C767 257 757 244 760.3 231.2C763.7 218.3 780.3 205.7 789 192.8C797.7 180 798.3 167 792.8 154.2C787.3 141.3 775.7 128.7 778.7 115.8C781.7 103 799.3 90 800.8 77.2C802.3 64.3 787.7 51.7 782.8 38.8C778 26 783 13 785.5 6.5L788 0L960 0L960 6.5C960 13 960 26 960 38.8C960 51.7 960 64.3 960 77.2C960 90 960 103 960 115.8C960 128.7 960 141.3 960 154.2C960 167 960 180 960 192.8C960 205.7 960 218.3 960 231.2C960 244 960 257 960 270C960 283 960 296 960 308.8C960 321.7 960 334.3 960 347.2C960 360 960 373 960 385.8C960 398.7 960 411.3 960 424.2C960 437 960 450 960 462.8C960 475.7 960 488.3 960 501.2C960 514 960 527 960 533.5L960 540Z" fill="#ffc63c"></path><path d="M796 540L799.2 533.5C802.3 527 808.7 514 805 501.2C801.3 488.3 787.7 475.7 791 462.8C794.3 450 814.7 437 817.7 424.2C820.7 411.3 806.3 398.7 803.5 385.8C800.7 373 809.3 360 817.8 347.2C826.3 334.3 834.7 321.7 830.3 308.8C826 296 809 283 802.8 270C796.7 257 801.3 244 806.8 231.2C812.3 218.3 818.7 205.7 815.5 192.8C812.3 180 799.7 167 793 154.2C786.3 141.3 785.7 128.7 789.2 115.8C792.7 103 800.3 90 808.5 77.2C816.7 64.3 825.3 51.7 824.5 38.8C823.7 26 813.3 13 808.2 6.5L803 0L960 0L960 6.5C960 13 960 26 960 38.8C960 51.7 960 64.3 960 77.2C960 90 960 103 960 115.8C960 128.7 960 141.3 960 154.2C960 167 960 180 960 192.8C960 205.7 960 218.3 960 231.2C960 244 960 257 960 270C960 283 960 296 960 308.8C960 321.7 960 334.3 960 347.2C960 360 960 373 960 385.8C960 398.7 960 411.3 960 424.2C960 437 960 450 960 462.8C960 475.7 960 488.3 960 501.2C960 514 960 527 960 533.5L960 540Z" fill="#ffcb4c"></path><path d="M880 540L872.5 533.5C865 527 850 514 844.5 501.2C839 488.3 843 475.7 852.3 462.8C861.7 450 876.3 437 883.3 424.2C890.3 411.3 889.7 398.7 882.8 385.8C876 373 863 360 857.2 347.2C851.3 334.3 852.7 321.7 851.8 308.8C851 296 848 283 846.5 270C845 257 845 244 851.5 231.2C858 218.3 871 205.7 870 192.8C869 180 854 167 850.5 154.2C847 141.3 855 128.7 860.8 115.8C866.7 103 870.3 90 875.2 77.2C880 64.3 886 51.7 889 38.8C892 26 892 13 892 6.5L892 0L960 0L960 6.5C960 13 960 26 960 38.8C960 51.7 960 64.3 960 77.2C960 90 960 103 960 115.8C960 128.7 960 141.3 960 154.2C960 167 960 180 960 192.8C960 205.7 960 218.3 960 231.2C960 244 960 257 960 270C960 283 960 296 960 308.8C960 321.7 960 334.3 960 347.2C960 360 960 373 960 385.8C960 398.7 960 411.3 960 424.2C960 437 960 450 960 462.8C960 475.7 960 488.3 960 501.2C960 514 960 527 960 533.5L960 540Z" fill="#ffcf5b"></path><path d="M925 540L917 533.5C909 527 893 514 892.7 501.2C892.3 488.3 907.7 475.7 910 462.8C912.3 450 901.7 437 901.7 424.2C901.7 411.3 912.3 398.7 911.5 385.8C910.7 373 898.3 360 896.7 347.2C895 334.3 904 321.7 903.7 308.8C903.3 296 893.7 283 891.5 270C889.3 257 894.7 244 899 231.2C903.3 218.3 906.7 205.7 908.7 192.8C910.7 180 911.3 167 914.5 154.2C917.7 141.3 923.3 128.7 924.2 115.8C925 103 921 90 913.7 77.2C906.3 64.3 895.7 51.7 894.7 38.8C893.7 26 902.3 13 906.7 6.5L911 0L960 0L960 6.5C960 13 960 26 960 38.8C960 51.7 960 64.3 960 77.2C960 90 960 103 960 115.8C960 128.7 960 141.3 960 154.2C960 167 960 180 960 192.8C960 205.7 960 218.3 960 231.2C960 244 960 257 960 270C960 283 960 296 960 308.8C960 321.7 960 334.3 960 347.2C960 360 960 373 960 385.8C960 398.7 960 411.3 960 424.2C960 437 960 450 960 462.8C960 475.7 960 488.3 960 501.2C960 514 960 527 960 533.5L960 540Z" fill="#ffd369"></path></svg>