<svg id="visual" viewBox="0 0 1920 1080" width="1920" height="1080" xmlns="http://www.w3.org/2000/svg" xmlns:xlink="http://www.w3.org/1999/xlink" version="1.1"><g stroke-width="1" stroke-linejoin="bevel"><path d="M850.3 579L852.3 686L1101.7 690Z" fill="#222831" stroke="#222831"></path><path d="M1101.7 690L1075.7 500L850.3 579Z" fill="#32373f" stroke="#32373f"></path><path d="M1075.7 500L827.3 382L850.3 579Z" fill="#2d333b" stroke="#2d333b"></path><path d="M1050.7 376L827.3 382L1075.7 500Z" fill="#343a42" stroke="#343a42"></path><path d="M647 755L819.3 912L852.3 686Z" fill="#242a33" stroke="#242a33"></path><path d="M852.3 686L1045.7 918L1101.7 690Z" fill="#262c35" stroke="#262c35"></path><path d="M1289 937L1292 695L1101.7 690Z" fill="#2f353d" stroke="#2f353d"></path><path d="M1101.7 690L1283 522L1075.7 500Z" fill="#222831" stroke="#222831"></path><path d="M1075.7 500L1275 332L1050.7 376Z" fill="#222831" stroke="#222831"></path><path d="M647 755L852.3 686L602 566Z" fill="#343a42" stroke="#343a42"></path><path d="M852.3 686L819.3 912L1045.7 918Z" fill="#2d333b" stroke="#2d333b"></path><path d="M1292 695L1283 522L1101.7 690Z" fill="#343a42" stroke="#343a42"></path><path d="M602 566L852.3 686L850.3 579Z" fill="#2d333b" stroke="#2d333b"></path><path d="M827.3 382L602 566L850.3 579Z" fill="#2b3139" stroke="#2b3139"></path><path d="M1506.3 355L1275 332L1283 522Z" fill="#2d333b" stroke="#2d333b"></path><path d="M1283 522L1275 332L1075.7 500Z" fill="#242a33" stroke="#242a33"></path><path d="M1050.7 376L1033.7 178L827.3 382Z" fill="#393e46" stroke="#393e46"></path><path d="M827.3 382L637 367L602 566Z" fill="#242a33" stroke="#242a33"></path><path d="M823.3 144L637 367L827.3 382Z" fill="#393e46" stroke="#393e46"></path><path d="M1256 1080L1289 937L1045.7 918Z" fill="#2b3139" stroke="#2b3139"></path><path d="M1045.7 918L1289 937L1101.7 690Z" fill="#393e46" stroke="#393e46"></path><path d="M1275 332L1033.7 178L1050.7 376Z" fill="#2f353d" stroke="#2f353d"></path><path d="M830.3 1080L1064.7 1080L1045.7 918Z" fill="#292f37" stroke="#292f37"></path><path d="M450.7 708L611 922L647 755Z" fill="#2b3139" stroke="#2b3139"></path><path d="M647 755L611 922L819.3 912Z" fill="#292f37" stroke="#292f37"></path><path d="M819.3 912L830.3 1080L1045.7 918Z" fill="#373c44" stroke="#373c44"></path><path d="M665 1080L830.3 1080L819.3 912Z" fill="#2f353d" stroke="#2f353d"></path><path d="M1033.7 178L823.3 144L827.3 382Z" fill="#393e46" stroke="#393e46"></path><path d="M1487.3 916L1486.3 683L1292 695Z" fill="#32373f" stroke="#32373f"></path><path d="M1292 695L1499.3 559L1283 522Z" fill="#292f37" stroke="#292f37"></path><path d="M1486.3 683L1499.3 559L1292 695Z" fill="#2f353d" stroke="#2f353d"></path><path d="M1064.7 1080L1256 1080L1045.7 918Z" fill="#222831" stroke="#222831"></path><path d="M1289 937L1487.3 916L1292 695Z" fill="#2d333b" stroke="#2d333b"></path><path d="M602 566L450.7 708L647 755Z" fill="#2f353d" stroke="#2f353d"></path><path d="M409.7 566L450.7 708L602 566Z" fill="#343a42" stroke="#343a42"></path><path d="M611 922L665 1080L819.3 912Z" fill="#32373f" stroke="#32373f"></path><path d="M442.7 1080L665 1080L611 922Z" fill="#292f37" stroke="#292f37"></path><path d="M1492.3 185L1274 143L1275 332Z" fill="#373c44" stroke="#373c44"></path><path d="M1275 332L1274 143L1033.7 178Z" fill="#292f37" stroke="#292f37"></path><path d="M1033.7 178L879.3 0L823.3 144Z" fill="#343a42" stroke="#343a42"></path><path d="M451.7 345L602 566L637 367Z" fill="#222831" stroke="#222831"></path><path d="M451.7 345L409.7 566L602 566Z" fill="#2b3139" stroke="#2b3139"></path><path d="M823.3 144L646 153L637 367Z" fill="#222831" stroke="#222831"></path><path d="M1525.3 1080L1487.3 916L1289 937Z" fill="#242a33" stroke="#242a33"></path><path d="M1486.3 683L1708.7 699L1499.3 559Z" fill="#373c44" stroke="#373c44"></path><path d="M1499.3 559L1506.3 355L1283 522Z" fill="#32373f" stroke="#32373f"></path><path d="M1729.7 371L1506.3 355L1499.3 559Z" fill="#2b3139" stroke="#2b3139"></path><path d="M646 153L451.7 345L637 367Z" fill="#393e46" stroke="#393e46"></path><path d="M198.3 710L421.7 932L450.7 708Z" fill="#292f37" stroke="#292f37"></path><path d="M450.7 708L421.7 932L611 922Z" fill="#292f37" stroke="#292f37"></path><path d="M1274 143L1038.7 0L1033.7 178Z" fill="#222831" stroke="#222831"></path><path d="M823.3 144L661 0L646 153Z" fill="#2b3139" stroke="#2b3139"></path><path d="M1038.7 0L879.3 0L1033.7 178Z" fill="#2d333b" stroke="#2d333b"></path><path d="M1506.3 355L1492.3 185L1275 332Z" fill="#2b3139" stroke="#2b3139"></path><path d="M1274 143L1287 0L1038.7 0Z" fill="#242a33" stroke="#242a33"></path><path d="M447.7 0L436.7 188L646 153Z" fill="#2b3139" stroke="#2b3139"></path><path d="M646 153L436.7 188L451.7 345Z" fill="#393e46" stroke="#393e46"></path><path d="M174.3 537L198.3 710L409.7 566Z" fill="#393e46" stroke="#393e46"></path><path d="M421.7 932L442.7 1080L611 922Z" fill="#262c35" stroke="#262c35"></path><path d="M1460.3 0L1287 0L1274 143Z" fill="#2b3139" stroke="#2b3139"></path><path d="M879.3 0L661 0L823.3 144Z" fill="#373c44" stroke="#373c44"></path><path d="M1256 1080L1525.3 1080L1289 937Z" fill="#2d333b" stroke="#2d333b"></path><path d="M1487.3 916L1708.7 699L1486.3 683Z" fill="#262c35" stroke="#262c35"></path><path d="M1726.7 875L1708.7 699L1487.3 916Z" fill="#262c35" stroke="#262c35"></path><path d="M1506.3 355L1713.7 169L1492.3 185Z" fill="#2f353d" stroke="#2f353d"></path><path d="M1708.7 699L1730.7 578L1499.3 559Z" fill="#373c44" stroke="#373c44"></path><path d="M409.7 566L198.3 710L450.7 708Z" fill="#343a42" stroke="#343a42"></path><path d="M421.7 932L227.3 939L442.7 1080Z" fill="#2b3139" stroke="#2b3139"></path><path d="M174.3 537L409.7 566L204.3 362Z" fill="#242a33" stroke="#242a33"></path><path d="M1695.7 1080L1726.7 875L1487.3 916Z" fill="#373c44" stroke="#373c44"></path><path d="M1708.7 699L1920 700L1730.7 578Z" fill="#2b3139" stroke="#2b3139"></path><path d="M1704.7 0L1460.3 0L1492.3 185Z" fill="#292f37" stroke="#292f37"></path><path d="M1492.3 185L1460.3 0L1274 143Z" fill="#262c35" stroke="#262c35"></path><path d="M1730.7 578L1729.7 371L1499.3 559Z" fill="#222831" stroke="#222831"></path><path d="M204.3 362L409.7 566L451.7 345Z" fill="#393e46" stroke="#393e46"></path><path d="M191.3 1080L227.3 939L0 914Z" fill="#262c35" stroke="#262c35"></path><path d="M198.3 710L227.3 939L421.7 932Z" fill="#242a33" stroke="#242a33"></path><path d="M199.3 208L204.3 362L451.7 345Z" fill="#343a42" stroke="#343a42"></path><path d="M199.3 208L451.7 345L436.7 188Z" fill="#2b3139" stroke="#2b3139"></path><path d="M661 0L447.7 0L646 153Z" fill="#2d333b" stroke="#2d333b"></path><path d="M1525.3 1080L1695.7 1080L1487.3 916Z" fill="#2d333b" stroke="#2d333b"></path><path d="M1729.7 371L1713.7 169L1506.3 355Z" fill="#292f37" stroke="#292f37"></path><path d="M181.3 0L199.3 208L436.7 188Z" fill="#2d333b" stroke="#2d333b"></path><path d="M0 326L0 577L174.3 537Z" fill="#343a42" stroke="#343a42"></path><path d="M0 914L227.3 939L198.3 710Z" fill="#292f37" stroke="#292f37"></path><path d="M227.3 939L191.3 1080L442.7 1080Z" fill="#262c35" stroke="#262c35"></path><path d="M1726.7 875L1920 700L1708.7 699Z" fill="#2b3139" stroke="#2b3139"></path><path d="M1730.7 578L1920 525L1729.7 371Z" fill="#262c35" stroke="#262c35"></path><path d="M1729.7 371L1920 195L1713.7 169Z" fill="#2d333b" stroke="#2d333b"></path><path d="M1920 916L1920 700L1726.7 875Z" fill="#292f37" stroke="#292f37"></path><path d="M1920 700L1920 525L1730.7 578Z" fill="#2b3139" stroke="#2b3139"></path><path d="M1920 0L1704.7 0L1713.7 169Z" fill="#343a42" stroke="#343a42"></path><path d="M1713.7 169L1704.7 0L1492.3 185Z" fill="#2b3139" stroke="#2b3139"></path><path d="M1920 525L1920 398L1729.7 371Z" fill="#262c35" stroke="#262c35"></path><path d="M0 326L174.3 537L204.3 362Z" fill="#373c44" stroke="#373c44"></path><path d="M174.3 537L0 577L198.3 710Z" fill="#32373f" stroke="#32373f"></path><path d="M0 577L0 733L198.3 710Z" fill="#343a42" stroke="#343a42"></path><path d="M1695.7 1080L1920 916L1726.7 875Z" fill="#343a42" stroke="#343a42"></path><path d="M199.3 208L0 326L204.3 362Z" fill="#32373f" stroke="#32373f"></path><path d="M447.7 0L181.3 0L436.7 188Z" fill="#373c44" stroke="#373c44"></path><path d="M0 733L0 914L198.3 710Z" fill="#222831" stroke="#222831"></path><path d="M0 160L0 326L199.3 208Z" fill="#32373f" stroke="#32373f"></path><path d="M1920 398L1920 195L1729.7 371Z" fill="#32373f" stroke="#32373f"></path><path d="M1695.7 1080L1920 1080L1920 916Z" fill="#2b3139" stroke="#2b3139"></path><path d="M0 914L0 1080L191.3 1080Z" fill="#2b3139" stroke="#2b3139"></path><path d="M181.3 0L0 160L199.3 208Z" fill="#343a42" stroke="#343a42"></path><path d="M1920 195L1920 0L1713.7 169Z" fill="#393e46" stroke="#393e46"></path><path d="M181.3 0L0 0L0 160Z" fill="#373c44" stroke="#373c44"></path></g></svg>